<?xml version="1.0" encoding="utf-8"?>
<!-- Generator: Adobe Illustrator 22.0.1, SVG Export Plug-In . SVG Version: 6.00 Build 0)  -->
<svg version="1.1" id="OBJECTS" xmlns="http://www.w3.org/2000/svg" xmlns:xlink="http://www.w3.org/1999/xlink" x="0px" y="0px"
	 viewBox="0 0 83 74.8" style="enable-background:new 0 0 83 74.8;" xml:space="preserve">
<style type="text/css">
	.st0{fill:#91BB1E;}
	.st1{opacity:0.2;fill:#A17872;}
	.st2{fill:#FDEBD1;}
	.st3{display:none;opacity:0.2;fill:#A17872;}
	.st4{fill:#2C2A40;}
	.st5{fill:#752A40;}
	.st6{fill:#4B1940;}
	.st7{fill:#F79D31;}
	.st8{fill:#D8852B;}
	.st9{fill:#EA902F;}
	.st10{fill:#F6B489;}
	.st11{fill:#F09E7B;}
	.st12{fill:#FFFFFF;}
	.st13{fill:#C900D0;}
	.st14{fill:#FFD600;}
	.st15{fill:#FFC700;}
</style>
<g>
	<g>
		<g>
			<path class="st0" d="M79.8,68c0,2-17.3,3.6-38.7,3.6C19.8,71.7,2.4,70,2.4,68c0-2,17.3-3.6,38.7-3.6C62.4,64.4,79.8,66,79.8,68z"
				/>
			<path class="st1" d="M17.9,10.7c0,0,0.9-5.5,3.3-5.3c0.7,0.1,1.1,0.7,1.4,1.5c0.2,0.4,0.8,0.4,1,0c0.6-2.2,1.9-5.6,4-5.6
				c2.1,0,2.2,3.9,2,6.3c0,0.4,0.4,0.5,0.6,0.2c0.6-0.8,1.4-1.6,2.3-1.4c1.9,0.4,1.4,4.4,1.4,4.4H17.9z"/>
			<g>
				<path class="st0" d="M73.1,67.9c0,0-4.8-1-4.5-8.3c0,0,3.7,2,4.6,5.1c0.5-1.5,1.8-3.3,4.7-4.9C77.9,59.8,78.2,67,73.1,67.9z"/>
			</g>
			<circle class="st2" cx="68.6" cy="19.3" r="11.7"/>
			<path class="st3" d="M66.1,14.7H50.8c0,0,0.7-4.3,2.6-4.2c0.5,0,0.9,0.6,1.1,1.2c0.1,0.4,0.6,0.3,0.8,0c0.5-1.8,1.5-4.4,3.1-4.4
				c1.6,0,1.7,3.1,1.6,4.9c0,0.3,0.3,0.4,0.5,0.2c0.4-0.6,1.1-1.3,1.8-1.1c0.7,0.2,1,0.8,1.1,1.6c0,0.2,0.3,0.2,0.4,0
				c0.4-1.1,1.1-2.6,1.9-2.6C66.8,10.1,66.1,14.7,66.1,14.7z"/>
		</g>
		<g>
			<g>
				<g>
					<g>
						<path class="st0" d="M18.9,7.4c-1.2-0.2-2.3,0.2-3.3,0.8c-2,1.3-5.2,4.4-3.4,10.2c1.2,3.8,0.7,6.2-2.5,7.8
							c-3.8,1.9-2.2,7.1-0.1,9.4c2,2.3,1.9,7.8-3.2,12c-5.1,4.1-0.9,10.1,7.3,9c8.2-1.1,17.1,2.5,16.5-5.5
							c-0.7-10.2-7.2-7.9-6.6-15.5c0.4-4.9,7-8.8,3.1-11.8c-3.9-2.9-5.2-1-4.2-5.8C23.2,13.8,23.3,8,18.9,7.4z"/>
					</g>
				</g>
			</g>
			<path class="st4" d="M20.5,34.1c0.1-0.1,0.1-0.3,0-0.5c-0.1-0.1-0.3-0.1-0.5,0l-2.3,2.3v-8.7l2.7-2.7c0.1-0.1,0.1-0.3,0-0.5
				c-0.1-0.1-0.3-0.1-0.5,0l-2.3,2.3v-8.9c0-0.2-0.2-0.4-0.4-0.4c-0.2,0-0.4,0.2-0.4,0.4v14.4l-2.3-2.3c-0.1-0.1-0.3-0.1-0.5,0
				c-0.1,0.1-0.1,0.3,0,0.5l2.7,2.7v8.7l-2.3-2.3c-0.1-0.1-0.3-0.1-0.5,0c-0.1,0.1-0.1,0.3,0,0.5l2.7,2.7v25.2
				c0,0.2,0.2,0.4,0.4,0.4c0.2,0,0.4-0.2,0.4-0.4V46.1l2.7-2.7c0.1-0.1,0.1-0.3,0-0.5c-0.1-0.1-0.3-0.1-0.5,0l-2.3,2.3v-8.4
				L20.5,34.1z"/>
		</g>
	</g>
	<g>
		<g>
			<path class="st5" d="M36.9,69.8c2.9-0.4,6-1.7,6-1.7s1.3-1.3,0.3-2.7c-0.6-0.8-1.4-0.8-1.4-0.8s-6,0.3-7.8,2.1
				c-0.4,0.5-0.7,0.9-0.7,1.3C33.3,69.3,34.8,70.1,36.9,69.8z"/>
			<path class="st6" d="M36.9,69.8c2.9-0.4,6-1.7,6-1.7s1.3-1.3,0.3-2.7c0,0,0.2,1.6-2.3,2.3c-1.6,0.4-3.5,1-5.1,1.1
				c-1,0-1.9-0.2-2.4-0.8l0,0C33.3,69.3,34.8,70.1,36.9,69.8z"/>
		</g>
		<path class="st4" d="M50.7,58.2c0,0-0.6,7-10,7c-9.4,0-9.8-7-9.8-7l9.9-0.9L50.7,58.2z"/>
		<path class="st7" d="M49.7,33.2l-1.9,20.6l-0.2,2.6c-5.5,2.5-9.5,2.2-14.5-0.1l-1.8-23.1c0-2.1,1.7-3.7,3.7-3.7l3.4,0l1.2,0l0.9,0
			l2.1,0l3.4,0C48,29.5,49.7,31.2,49.7,33.2z"/>
		<path class="st8" d="M47.8,53.8l-0.2,2.6c-5.5,2.5-9.5,2.2-14.5-0.1l-1.8-23.1c0-2.1,1.7-3.7,3.7-3.7l3.4,0l1.2,0c0,0,0,0,0,0
			c0,0-4.3,6.3-3.5,13.6c0.8,7.3,4.4,11.5,8,11.8C46,55,47.2,54.4,47.8,53.8z"/>
		<path class="st9" d="M37.3,29.5c0,0-0.3,2.6,3.2,2.6s3.3-2.6,3.3-2.6L37.3,29.5z"/>
		<g>
			<path class="st10" d="M42.8,26.1v3.7c0,0.6-0.4,1.1-0.9,1.3c-0.9,0.3-1.8,0.3-2.7,0c-0.6-0.2-0.9-0.7-0.9-1.3v-3.7H42.8z"/>
			<path class="st11" d="M42.8,26.1v2.6c-0.6,0.3-1.3,0.5-2.3,0.5c-0.8,0-1.7-0.2-2.2-0.6v-2.6H42.8z"/>
		</g>
		<g>
			<path class="st10" d="M47.2,13.7L47.2,13.7h-0.4h-5.9h-0.4h-5.9h-0.4h0l0.7,7c0.1,1.4,0.5,2.7,1.2,3.9c0.4,1,1.1,1.8,1.9,2.5
				c0.7,0.7,1.6,1.1,2.5,1.1l0,0c0,0,0,0,0,0c0.1,0,0.3,0,0.4,0c0,0,0,0,0,0l0,0c0.9,0,1.8-0.5,2.5-1.1c0.8-0.7,1.4-1.5,1.9-2.5
				c0.6-1.2,1-2.6,1.2-3.9L47.2,13.7z"/>
			<g>
				<path class="st10" d="M34.8,17.1c0,0,0.1-1.3-1.5-0.9c-0.9,0.2-0.4,2.3,0.1,3.1c0.5,0.8,0.4,3.7,2,3.2L34.8,17.1z"/>
				<path class="st11" d="M33.5,17.6c0,0,1.2-0.7,1.3,3.2C34.8,20.8,34.5,18,33.5,17.6z"/>
			</g>
			<g>
				<path class="st10" d="M46.6,17.1c0,0-0.1-1.3,1.5-0.9c0.9,0.2,0.4,2.3-0.1,3.1c-0.5,0.8-0.4,3.7-2,3.2L46.6,17.1z"/>
				<path class="st11" d="M47.9,17.6c0,0-1.2-0.7-1.3,3.2C46.6,20.8,46.9,18,47.9,17.6z"/>
			</g>
			<g>
				<path class="st4" d="M38.5,19.6c0,0.3-0.3,0.5-0.6,0.4c-0.3,0-0.5-0.3-0.4-0.6c0-0.3,0.3-0.5,0.6-0.4
					C38.3,19,38.5,19.3,38.5,19.6z"/>
				<g>
					<path class="st4" d="M42.1,17.2c0,0,3.5-0.6,3.2,1.4l0,0c0,0-1-1.2-2.8-1C42.2,17.7,42,17.5,42.1,17.2L42.1,17.2z"/>
					<path class="st4" d="M39.1,17.2c0,0-3.5-0.6-3.2,1.4l0,0c0,0,1-1.2,2.8-1C39,17.7,39.2,17.5,39.1,17.2L39.1,17.2z"/>
					<path class="st4" d="M42.7,19.6c0,0.3,0.3,0.5,0.6,0.4c0.3,0,0.5-0.3,0.4-0.6c0-0.3-0.3-0.5-0.6-0.4
						C42.9,19,42.7,19.3,42.7,19.6z"/>
				</g>
			</g>
			<path class="st11" d="M39.1,21.5c0,0,0.3,0.6,1.4,0.6c1.1,0,1.5-0.6,1.5-0.6s-0.3,1-1.4,1.1C39.3,22.6,39.1,21.5,39.1,21.5z"/>
			<path class="st4" d="M34.9,18.7c0,0-1.9-3.7-1.3-6.3c0,0-0.3-1.4,0.6-2.2c1.4-1.2,5.6-4,9.8-2.4c4.2,1.5,4.9,3.4,3.3,5.5
				c0,0,0.5,3.3-0.9,5.2c0,0-0.8-2.3-0.5-4.2c0,0-3.8,2.4-10.5-0.1C35.3,14.2,35.8,16.9,34.9,18.7z"/>
			<path class="st12" d="M37.6,23.5c0.2,1.5,1.5,2.6,3,2.6s2.8-1.1,3-2.6H37.6z"/>
		</g>
		<path class="st13" d="M47.2,29.8"/>
		<path class="st4" d="M38.7,58.1c0,0-8.2-5.7-12.4-4.2c-4.2,1.5-5.2,8.4,1.4,11.4c6.6,3,11.3,2.8,11.3,2.8l1.2-3.3
			c0,0-6.4-1.9-9.3-6.6C30.9,58.2,36.4,59.1,38.7,58.1z"/>
		<path class="st4" d="M42.6,58.1c0,0,8.5-5.9,12.7-4.4c4.2,1.5,5,8.6-1.7,11.7c-6.6,3-11.3,2.8-11.3,2.8l-1.2-3.3
			c0,0,6.4-1.9,9.3-6.6C50.5,58.2,44.9,59.1,42.6,58.1z"/>
		<g>
			<polygon class="st12" points="46.8,43.1 34.1,43.1 34.4,42.2 46.5,42.2 			"/>
			<polygon class="st14" points="40.5,51.3 35.1,51.3 33.9,42.6 40.5,42.6 			"/>
			<polygon class="st15" points="40.5,51.3 45.8,51.3 47,42.6 40.5,42.6 			"/>
		</g>
		<path class="st10" d="M33.3,47.3c-0.8,1.2,1.8,3.8,2.8,3.5c1-0.3,3.3-1.8,2.8-2c-0.5-0.2-2.1,0.5-2.1,0.5c0.9-0.5,2.6-2.1,2-2.2
			s-2.5,1.3-2.5,1.3c2.5-1.8,2.8-2.9,2.2-2.9c-0.6,0-3.4,2-3.4,2c0.7-0.7,2.6-2.9,1.4-2.8c-1.1,0.2-2.9,2.4-2.9,2.4
			S33.4,47.1,33.3,47.3z"/>
		<g>
			<path class="st5" d="M45.1,69.8c-2.9-0.4-6-1.7-6-1.7s-1.3-1.3-0.3-2.7c0.6-0.8,1.4-0.8,1.4-0.8s6,0.3,7.8,2.1
				c0.4,0.5,0.7,0.9,0.7,1.3C48.8,69.3,47.3,70.1,45.1,69.8z"/>
			<path class="st6" d="M45.1,69.8c-2.9-0.4-6-1.7-6-1.7s-1.3-1.3-0.3-2.7c0,0-0.2,1.6,2.3,2.3c2.6,0.7,6.3,1.8,7.5,0.3l0,0
				C48.8,69.3,47.3,70.1,45.1,69.8z"/>
		</g>
		<path class="st10" d="M33.3,47.3c0,0-0.3-1.7,0.9-2.3l0.2,1.2C34.4,46.2,33.8,47.6,33.3,47.3z"/>
		<path class="st10" d="M47.6,47.3c0.5,1.8-1.8,3.8-2.8,3.5c-1-0.3-3.3-1.8-2.8-2c0.5-0.2,2.1,0.5,2.1,0.5c-0.9-0.5-2.6-2.1-2-2.2
			c0.6-0.1,2.5,1.3,2.5,1.3c-2.5-1.8-2.8-2.9-2.2-2.9c0.6,0,3.4,2,3.4,2c-0.7-0.7-2.6-2.9-1.4-2.8c1.1,0.2,2.9,2.4,2.9,2.4
			S47.6,47.1,47.6,47.3z"/>
		<path class="st10" d="M47.6,47.3c0,0,0.3-1.7-0.9-2.3l-0.2,1.2C46.5,46.2,47.1,47.6,47.6,47.3z"/>
		<path class="st7" d="M33.2,48.5l-5.2,1.3c1.9-4,3.6-6.7,4.2-10c0,0,0.4-6.3-0.1-9c0,0-3,3.5-6.8,12.3c-2.6,6.1-3.3,10.2-0.1,11.6
			c3.3,1.4,10.8-3.8,10.8-3.8L33.2,48.5z"/>
		<path class="st7" d="M47.6,48.5l5.2,1.3c-1.9-4-3.6-6.7-4.2-10c0,0-0.4-6.3,0.1-9c0,0,3,3.5,6.8,12.3c2.6,6.1,3.3,10.2,0.1,11.6
			c-3.3,1.4-10.8-3.8-10.8-3.8L47.6,48.5z"/>
	</g>
</g>
</svg>
