<?xml version="1.0" encoding="utf-8"?>
<!-- Generator: Adobe Illustrator 22.0.1, SVG Export Plug-In . SVG Version: 6.00 Build 0)  -->
<svg version="1.1" id="OBJECTS" xmlns="http://www.w3.org/2000/svg" xmlns:xlink="http://www.w3.org/1999/xlink" x="0px" y="0px"
	 viewBox="0 0 126 88.6" style="enable-background:new 0 0 126 88.6;" xml:space="preserve">
<style type="text/css">
	.st0{fill:#B5A14E;}
	.st1{fill:#E2C759;}
	.st2{fill:#F79D31;}
	.st3{fill:#E8800F;}
	.st4{opacity:0.2;fill:#BF5F10;}
	.st5{fill:#9E923E;}
	.st6{fill:#7F5C2E;}
	.st7{display:none;fill:#BA2D2D;}
</style>
<g>
	<g>
		<g>
			<g>
				<path class="st0" d="M80.7,26.5c1.6,0.5,3.5,0,4.7-1.3c1.2-1.4,1.5-3.2,0.9-4.8c-1.6-0.5-3.5,0-4.7,1.3S80,24.9,80.7,26.5z"/>
				<path class="st1" d="M80.7,26.5c1.6,0.5,3.5,0,4.7-1.3c1.2-1.4,1.5-3.2,0.9-4.8L80.7,26.5z"/>
			</g>
			<g>
				<path class="st0" d="M73.8,20.7c1.7-0.1,3.3-1.1,4-2.7c0.7-1.7,0.4-3.5-0.7-4.8c-1.7,0.1-3.3,1.1-4,2.7
					C72.4,17.5,72.7,19.4,73.8,20.7z"/>
				<path class="st1" d="M73.8,20.7c1.7-0.1,3.3-1.1,4-2.7c0.7-1.7,0.4-3.5-0.7-4.8L73.8,20.7z"/>
			</g>
		</g>
		<g>
			<g>
				<path class="st1" d="M44.2,26.5c-1.6,0.5-3.5,0-4.7-1.3c-1.2-1.4-1.5-3.2-0.9-4.8c1.6-0.5,3.5,0,4.7,1.3S44.8,24.9,44.2,26.5z"
					/>
				<path class="st0" d="M44.2,26.5c-1.6,0.5-3.5,0-4.7-1.3c-1.2-1.4-1.5-3.2-0.9-4.8L44.2,26.5z"/>
			</g>
			<g>
				<ellipse transform="matrix(0.9142 -0.4053 0.4053 0.9142 -2.6105 21.45)" class="st1" cx="49.3" cy="16.9" rx="2.6" ry="4.1"/>
				<path class="st0" d="M51,20.7c-1.7-0.1-3.3-1.1-4-2.7c-0.7-1.7-0.4-3.5,0.7-4.8L51,20.7z"/>
			</g>
		</g>
	</g>
	<g>
		<path class="st2" d="M62.4,7c-1,3-2.7,7.2-3.6,6.9c0,0-0.3,0.6,0,1.8c0.3,1.1-0.7,2.3-1.7,2c-1-0.3-0.9-0.9-0.9-0.9
			s-0.5,1.3,0,2.8c0.5,1.5-0.6,2-1.7,1.7c-1.1-0.4-1.1-1.3-1.1-1.3s-0.9,1.2-0.3,3c0.5,1.8,1.4,4-0.2,4.4c-1.6,0.4-1.8-1.1-1.8-1.1
			s-0.6,1.6,0,3.5c0.6,1.9,0.5,3.4-1.4,3.3c-1.8-0.1-2.8-2.5-4.5-2.5c0,0,0.6,0.5,0,1s-2.9,0.2-3.8-0.8c-0.9-0.9-2-1.1-2-1.1
			s0.2,0.5,0,1.1c-0.2,0.5-1.4,0.4-2.6-0.3c-1.2-0.7-2.1-0.7-2.1-0.7s0.3,0.1-0.2,0.4c-0.5,0.3-4.3-1-5.6-2.4c0,0,1.7,7.9,3.1,9.4
			c1.4,1.6,1.3,3.3,0.7,3.4c-0.6,0.2-1.1,0-1.1,0s0.3,0.7,1.1,1.6c0.9,0.9,2.2,1.6,1.7,2.8c-0.5,1.2-1.3,1.1-1.3,1.1
			s0.6,0.8,1.5,1.2c0.9,0.4,2.5,2.3,1.8,3.1c-0.7,0.8-1.7,0.2-1.7,0.2s0.3,0.5,1,1.2c0.7,0.7,3.1,2.1,2.6,4.1c-0.5,2-2.1,1.3-3.4,2
			c0,0,0.7,0.1,0.2,1c-0.5,0.9-4.4,2.7-4.4,2.7s0.9,2.2,3.5,3.4c2.6,1.2,4.7,0.8,4.8,1.6c0.1,0.8-1,0.8-1,0.8s0.3,0.6,2.8,0.5
			c2.5-0.1,4.7-0.6,5.2,0.4c0.5,1-0.5,2-0.5,2s4,0.4,6-0.5c4.7-2,7.9-8,10.9-9.1c3,1.1,6.2,7.1,10.9,9.1c2,0.9,6,0.5,6,0.5
			s-1-1-0.5-2c0.5-1,2.7-0.5,5.2-0.4c2.5,0.1,2.8-0.5,2.8-0.5s-1.1,0-1-0.8c0.1-0.8,2.2-0.4,4.8-1.6c2.6-1.2,3.5-3.4,3.5-3.4
			s-3.9-1.7-4.4-2.7c-0.5-0.9,0.2-1,0.2-1c-1.3-0.7-2.8,0-3.4-2c-0.5-2,1.9-3.4,2.6-4.1s1-1.2,1-1.2s-1,0.5-1.7-0.2
			c-0.7-0.8,0.9-2.7,1.8-3.1c0.9-0.4,1.5-1.2,1.5-1.2s-0.8,0.1-1.3-1.1C90,43.7,91.3,43,92.1,42c0.9-0.9,1.1-1.6,1.1-1.6
			s-0.5,0.2-1.1,0c-0.6-0.2-0.7-1.9,0.7-3.4c1.4-1.6,3.1-9.4,3.1-9.4c-1.2,1.4-5,2.7-5.6,2.4c-0.5-0.3-0.2-0.4-0.2-0.4
			s-0.9,0-2.1,0.7c-1.2,0.7-2.4,0.9-2.6,0.3c-0.2-0.5,0-1.1,0-1.1s-1.2,0.2-2,1.1c-0.9,0.9-3.2,1.3-3.8,0.8s0-1,0-1
			c-1.8,0-2.7,2.4-4.5,2.5c-1.8,0.1-1.9-1.4-1.4-3.3c0.6-1.9,0-3.5,0-3.5s-0.1,1.5-1.8,1.1c-1.6-0.4-0.7-2.6-0.2-4.4
			c0.5-1.8-0.3-3-0.3-3s0,0.9-1.1,1.3c-1.1,0.4-2.2-0.2-1.7-1.7c0.5-1.5,0-2.8,0-2.8s0.1,0.6-0.9,0.9c-1,0.3-2-0.9-1.7-2
			c0.3-1.1,0-1.8,0-1.8C65.1,14.2,63.4,10,62.4,7z"/>
		<path class="st3" d="M85.5,40.7c2-2.2,4.4-4.7,5.7-7.3c0-0.1-0.1-0.2-0.1-0.1c-1.1,1.1-1.9,2.4-2.9,3.6c-1,1.2-2,2.3-3.1,3.4
			c-0.1,0.1-0.2,0.2-0.3,0.3c0.1-1.8,0.3-3.7,0.9-5.5c0-0.1-0.1-0.1-0.1,0c-0.9,2-1.4,4-1.5,6.2c-1.3,1.3-2.7,2.6-4.1,3.8
			c-0.1,0-0.1,0.1-0.2,0.2c-0.5,0.4-1,0.8-1.5,1.2c-1.1,0.9-2.3,1.7-3.4,2.5c0-0.1,0-0.1-0.1-0.2c0.2-1.7,0.1-3.4,0.3-5.1
			c0.3-2.5,0.9-5,1.7-7.4c0-0.1-0.2-0.2-0.2-0.1c-1,2.4-1.7,4.9-2.1,7.4c-0.4,1.9-0.8,4.1-0.6,6c-1.1,0.7-2.1,1.4-3.2,2
			c-1,0.6-2.1,1.1-3.1,1.7c0.6-3.6,1.3-7.1,2.3-10.6c0-0.1-0.1-0.2-0.2-0.1c-1.4,3.7-2.6,7.3-3.2,11.2c-1.1,0.5-2.4,0.9-3.4,1.7
			c-0.1,0-0.1,0-0.2,0.1c-0.1-2.3-0.2-4.6-0.2-6.9c0-1.3,0-2.6,0.1-3.9c1.7-0.5,3.4-2.1,4.7-3.2c1.6-1.4,3.2-3.3,4.2-5.2
			c0.1-0.1-0.1-0.2-0.2-0.1c-1.4,1.8-2.6,3.4-4.4,4.9c-1.3,1.1-2.9,1.7-4.3,2.6c0.1-3.6,0.1-7.2,0.2-10.8c0,0,0.1,0,0.1,0
			c2.3-2,4.6-4.7,5.6-7.6c0-0.1-0.1-0.2-0.2-0.1c-0.7,1.5-1.7,2.7-2.7,3.9c-0.9,0.9-1.9,1.7-2.8,2.5c0.1-4.7,0.1-9.5,0-14.2
			c0,0,0,0,0,0c-0.4,5.4-0.5,10.7-0.7,16.1c0,0.5-0.1,1.1-0.1,1.6c-2.4-3.3-4.5-6.6-6.1-10.4c0-0.1-0.2,0-0.1,0.1
			c1.5,4,3.5,8,6.2,11.5c0,0,0,0,0.1,0.1c-0.2,3.4-0.4,6.9-0.5,10.3c-2.8-3-5.2-6.3-7.2-10c0-0.1-0.1,0-0.1,0.1
			c1.8,3.9,4.1,7.6,7,10.8c0,0.1,0.1,0.1,0.1,0.1c0,0.1,0.1,0.2,0.1,0.3c0,0.5,0,0.9,0,1.4c0,2.1,0,4.2,0.1,6.3
			c-0.9-0.4-1.7-0.8-2.6-1.3c-0.8-3.6-2.8-7.2-5-10.2c-0.1-0.1-0.2,0-0.2,0.1c1.9,3,3,6.1,4,9.5c-2.3-1.3-4.5-2.7-6.6-4.2
			c-0.6-3.8-1.7-7.4-3.2-11c-0.1-0.1-0.3-0.1-0.2,0.1c1.2,3.4,2.1,6.9,2.8,10.5c-2.2-1.6-4.3-3.4-6.4-5.2c-0.5-3.2-1.5-6.2-2.8-9.1
			c0-0.1-0.2,0-0.2,0.1c1.1,2.8,1.8,5.7,2.5,8.6c-3-2.7-5.9-5.6-8.8-8.6c0,0-0.1,0-0.1,0.1c2.5,2.7,5,5.4,7.7,8
			c-2.3-0.1-4.7-0.4-7-0.8c0,0-0.1,0,0,0.1c2.4,0.7,4.9,1.1,7.4,1.2c0,0,0,0,0,0c2.3,2.3,4.7,4.4,7.2,6.4c-0.2,0.1-0.4,0.3-0.6,0.4
			c-1.2,0.3-2.3,0.8-3.5,0.9c-2.2,0.3-4.4,0.4-6.6,0.1c-0.1,0-0.1,0.1,0,0.1c2.2,0.4,4.4,0.6,6.6,0.3c1.5-0.1,3.7-0.1,5-1.2
			c2.1,1.6,4.3,3.1,6.5,4.4c-1.1,0.5-2.3,1.1-3.4,1.7c-2.1-1-4.4-1.1-6.7-0.8c-0.1,0-0.1,0.2,0,0.2c2.1-0.2,4,0.3,5.9,0.9
			c-2.1,1.2-4.2,2.4-6.3,3.3c-1.5-1.4-3.2-2.3-5.2-2.6c-0.1,0-0.1,0.1,0,0.2c1.8,0.4,3.4,1.4,4.7,2.7c-3.3,1.4-6.6,2.1-10.3,1.1
			c-0.1,0-0.1,0.1,0,0.1c2.7,1,5.4,0.9,7.9,0.3c-0.7,1-1.7,1.9-2.8,2.6c0,0,0,0.1,0,0.1c1.4-0.7,2.5-1.6,3.5-2.9
			c2.9-0.8,5.6-2.4,8.4-3.8c-0.1,1.3,0,2.7-0.3,4c-0.3,1.5-0.9,3-1.7,4.3c0,0.1,0.1,0.1,0.1,0.1c1.6-2.4,3.1-5.7,2.5-8.7
			c1.6-0.8,3.1-1.6,4.7-2.3c0.8,0.4,1.6,0.9,2.5,1.3c0.1,0,0.2,0.1,0.3,0.1c0.1,2.4,0.3,4.8,0.5,7.2c0.3,4.9,0.5,9.9,1.8,14.6
			c0.2,0.8,1.5,0.5,1.3-0.4c-1.3-4.9-1.5-10-1.9-15c-0.1-2-0.3-4-0.4-6c0,0,0.1,0,0.1-0.1c0.3-0.4,0.7-0.7,1.1-1.1
			c0.7-0.2,1.5-0.6,2.2-1c1,0.4,2,0.7,3,1c-0.1,3,1.2,6.3,2.7,8.9c0.1,0.1,0.2,0,0.1-0.1c-1.4-2.8-1.7-5.5-2-8.5
			c0.3,0.1,0.6,0.2,1,0.3c1.8,0.7,3.6,1.4,5.4,2.2c0.2,0.1,0.5,0.2,0.7,0.3c1,2,2.3,3.8,3.8,5.5c0.1,0.1,0.2,0,0.1-0.1
			c-1.3-1.5-2.2-3.2-3-4.9c2.7,1.2,5.4,2.2,8.5,2.3c0.2,0,0.2-0.3,0-0.3c-3.2-0.3-6.1-1.6-9-3.1c0-0.1-0.1-0.1-0.2-0.1
			c-0.7-0.3-1.4-0.7-2.1-1c1.9-1.3,4.2-2.2,6.4-2.6c0.2,0,0.1-0.3-0.1-0.2c-2.7,0.4-5.1,0.7-7.4,2.3c-2.1-1.1-4.3-2-6.6-2.6
			c1.1-0.6,2.1-1.2,3.2-1.8c0.9-0.5,1.8-1.1,2.6-1.7c2.5,1.9,6.4,1.8,9.4,1.7c0.2,0,0.2-0.2,0-0.2c-1.7,0-3.3-0.4-5-0.8
			c-1.2-0.3-2.4-0.9-3.5-1.2c1.4-1,2.9-2,4.2-3.1c0.6-0.5,1.1-0.9,1.6-1.4c2.1,0.1,3.9-0.4,5.8-1.3c0.1,0,0-0.1,0-0.1
			c-1.5,0.5-3.3,0.7-5,0.6C82.6,43.7,84.1,42.2,85.5,40.7z"/>
		<path class="st4" d="M89.7,58.8c-0.5-0.9,0.2-1,0.2-1c-1.3-0.7-2.8,0-3.4-2c-0.5-2,1.9-3.4,2.6-4.1s1-1.2,1-1.2s-1,0.5-1.7-0.2
			c0,0,0-0.1,0-0.1c-4.4,0.9-9.1,1.4-13.9,1.4c-21.6,0-39.9-10.1-45.5-24c0.3,1.1,1.8,7.8,3.1,9.3c1.4,1.6,1.3,3.3,0.7,3.4
			c-0.6,0.2-1.1,0-1.1,0s0.3,0.7,1.1,1.6c0.9,0.9,2.2,1.6,1.7,2.8c-0.5,1.2-1.3,1.1-1.3,1.1s0.6,0.8,1.5,1.2
			c0.9,0.4,2.5,2.3,1.8,3.1c-0.7,0.8-1.7,0.2-1.7,0.2s0.3,0.5,1,1.2c0.7,0.7,3.1,2.1,2.6,4.1c-0.5,2-2.1,1.3-3.4,2
			c0,0,0.7,0.1,0.2,1c-0.5,0.9-4.4,2.7-4.4,2.7s0.9,2.2,3.5,3.4c2.6,1.2,4.7,0.8,4.8,1.6c0.1,0.8-1,0.8-1,0.8s0.3,0.6,2.8,0.5
			c2.5-0.1,4.7-0.6,5.2,0.4c0.5,1-0.5,2-0.5,2s4,0.4,6-0.5c4.7-2,7.9-8,10.9-9.1c3,1.1,6.2,7.1,10.9,9.1c2,0.9,6,0.5,6,0.5
			s-1-1-0.5-2c0.5-1,2.7-0.5,5.2-0.4c2.5,0.1,2.8-0.5,2.8-0.5s-1.1,0-1-0.8c0.1-0.8,2.2-0.4,4.8-1.6c2.6-1.2,3.5-3.4,3.5-3.4
			S90.1,59.7,89.7,58.8z"/>
	</g>
	<g>
		<path class="st5" d="M111.8,43.8c0,0,2.8-2.2,2-5.1c-0.8-2.9-0.1-4.6-0.3-4.4c-0.2,0.2-2.8,1.1-3,4.2
			C110.3,41.5,112.6,42.2,111.8,43.8z"/>
		<path class="st5" d="M111.1,46.2c0,0,1.6-2.2,4-3.1c2.3-0.9,4.3-3.3,4.3-3.3s0.5,3.5-1.6,5.1C115.6,46.4,112.6,44.8,111.1,46.2z"
			/>
		<path class="st5" d="M110.8,46.6c0,0,0.4-1.9-1.1-4.3c-1.5-2.4-1.2-4.6-1.2-4.6s-3.4,1.6-1.9,4.7
			C108.1,45.5,110.5,45.8,110.8,46.6z"/>
		<path class="st5" d="M110.6,50.1c0,0,2.9-2.1,4.9-1.6c2,0.5,4.8-1.3,4.8-1.3s-0.7,2.9-3.1,3.8C114.8,51.9,111.5,49.7,110.6,50.1z"
			/>
		<path class="st5" d="M109.9,50.5c0,0-0.2-2.4-2.4-4c-2.2-1.6-3.4-5.3-3.4-5.3s-1.7,4.1,0.4,6.5C106.5,50,109.4,49.5,109.9,50.5z"
			/>
		<path class="st5" d="M108.9,54.3c0,0,3.9-1.9,5.9-0.7c2,1.2,5.5-0.5,5.5-0.5s-1.3,3.4-4.3,3.8C112.9,57.4,110.6,54.1,108.9,54.3z"
			/>
		<path class="st5" d="M107.6,55.5c0,0-1.7-4.3-4.2-5.5c-2.5-1.2-3.1-4-3.1-4s-1.3,3.8,1.6,6.2C104.8,54.7,106.8,54.3,107.6,55.5z"
			/>
		<path class="st5" d="M106.8,59.4c0,0,3-1.6,5.2,0c2.2,1.6,4.8,0.7,4.8,0.7s-1.5,2.9-3.8,2.4C110.6,62,107.9,59.1,106.8,59.4z"/>
		<path class="st5" d="M105.7,59.9c0,0,0.1-3.2-2.1-4.1c-2.2-0.9-4.4-3.8-4.4-3.8s-1.3,2.7,0.9,4.9
			C102.3,59.1,104.8,58.8,105.7,59.9z"/>
		<path class="st5" d="M104.9,63.1c0,0,3.3-0.8,4.6,0.7c1.3,1.6,3.4,1.4,3.4,1.4s-0.3,1.6-2.7,1.4C107.7,66.5,105.9,63,104.9,63.1z"
			/>
		<path class="st5" d="M103.6,64.2c0,0,0.6-3-2.1-4.1c-2.7-1.1-4-3-4-3s-1.6,1.9,1,4C100.9,63,102.6,62.8,103.6,64.2z"/>
		<path class="st5" d="M102.4,67.9c0,0,2.2-1.2,3.7,0c1.4,1.2,3.6,1.5,3.6,1.5s-1.4,1.5-3.4,0.9C104.1,69.7,103.7,67.9,102.4,67.9z"
			/>
		<path class="st5" d="M100.8,68.5c0,0,0.5-2.7-1.5-4c-2-1.3-2.6-2.4-2.5-2.1c0.1,0.3-1.4,2.1,0.5,3.7
			C99.3,67.8,100,67.2,100.8,68.5z"/>
		<path class="st6" d="M111.8,43.8c-2.4,14.5-10.1,28.8-21.2,38.5c-0.7,0.6-1.7-0.4-1-1.1c5.3-5.1,10.3-10.6,13.8-17
			c3.5-6.4,6.3-13.4,8-20.5C111.5,43.5,111.8,43.6,111.8,43.8z"/>
	</g>
	<g>
		<path class="st5" d="M13.2,43.8c0,0-2.8-2.2-2-5.1c0.8-2.9,0.1-4.6,0.3-4.4c0.2,0.2,2.8,1.1,3,4.2C14.7,41.5,12.4,42.2,13.2,43.8z
			"/>
		<path class="st5" d="M13.9,46.2c0,0-1.6-2.2-4-3.1c-2.3-0.9-4.3-3.3-4.3-3.3s-0.5,3.5,1.6,5.1C9.4,46.4,12.4,44.8,13.9,46.2z"/>
		<path class="st5" d="M14.2,46.6c0,0-0.4-1.9,1.1-4.3c1.5-2.4,1.2-4.6,1.2-4.6s3.4,1.6,1.9,4.7C16.9,45.5,14.5,45.8,14.2,46.6z"/>
		<path class="st5" d="M14.4,50.1c0,0-2.9-2.1-4.9-1.6c-2,0.5-4.8-1.3-4.8-1.3s0.7,2.9,3.1,3.8C10.2,51.9,13.5,49.7,14.4,50.1z"/>
		<path class="st5" d="M15.1,50.5c0,0,0.2-2.4,2.4-4c2.2-1.6,3.4-5.3,3.4-5.3s1.7,4.1-0.4,6.5C18.5,50,15.6,49.5,15.1,50.5z"/>
		<path class="st5" d="M16.1,54.3c0,0-3.9-1.9-5.9-0.7c-2,1.2-5.5-0.5-5.5-0.5s1.3,3.4,4.3,3.8C12.1,57.4,14.4,54.1,16.1,54.3z"/>
		<path class="st5" d="M17.4,55.5c0,0,1.7-4.3,4.2-5.5c2.5-1.2,3.1-4,3.1-4s1.3,3.8-1.6,6.2C20.2,54.7,18.2,54.3,17.4,55.5z"/>
		<path class="st5" d="M18.2,59.4c0,0-3-1.6-5.2,0c-2.2,1.6-4.8,0.7-4.8,0.7s1.5,2.9,3.8,2.4C14.4,62,17.1,59.1,18.2,59.4z"/>
		<path class="st5" d="M19.3,59.9c0,0-0.1-3.2,2.1-4.1c2.2-0.9,4.4-3.8,4.4-3.8s1.3,2.7-0.9,4.9C22.7,59.1,20.2,58.8,19.3,59.9z"/>
		<path class="st5" d="M20.1,63.1c0,0-3.3-0.8-4.6,0.7c-1.3,1.6-3.4,1.4-3.4,1.4s0.3,1.6,2.7,1.4C17.3,66.5,19.1,63,20.1,63.1z"/>
		<path class="st5" d="M21.4,64.2c0,0-0.6-3,2.1-4.1c2.7-1.1,4-3,4-3s1.6,1.9-1,4C24.1,63,22.4,62.8,21.4,64.2z"/>
		<path class="st5" d="M22.6,67.9c0,0-2.2-1.2-3.7,0c-1.4,1.2-3.6,1.5-3.6,1.5s1.4,1.5,3.4,0.9C20.9,69.7,21.3,67.9,22.6,67.9z"/>
		<path class="st5" d="M24.2,68.5c0,0-0.5-2.7,1.5-4c2-1.3,2.6-2.4,2.5-2.1c-0.1,0.3,1.4,2.1-0.5,3.7C25.7,67.8,25,67.2,24.2,68.5z"
			/>
		<path class="st6" d="M13.2,43.8c2.4,14.5,10.1,28.8,21.2,38.5c0.7,0.6,1.7-0.4,1-1.1c-5.3-5.1-10.3-10.6-13.8-17
			c-3.5-6.4-6.3-13.4-8-20.5C13.5,43.5,13.2,43.6,13.2,43.8z"/>
	</g>
	<path class="st7" d="M27.3,65.4c0.8,0,34.9-21,34.9-21l35.3,21L81.2,76.7L27.3,65.4z"/>
</g>
</svg>
