<?xml version="1.0" encoding="utf-8"?>
<!-- Generator: Adobe Illustrator 22.0.1, SVG Export Plug-In . SVG Version: 6.00 Build 0)  -->
<svg version="1.1" id="Слой_2" xmlns="http://www.w3.org/2000/svg" xmlns:xlink="http://www.w3.org/1999/xlink" x="0px" y="0px"
	 viewBox="0 0 100 100" style="enable-background:new 0 0 100 100;" xml:space="preserve">
<style type="text/css">
	.st0{fill:#0678BE;}
</style>
<g>
	<g>
		<path class="st0" d="M78.8,43.6c-0.3,0-0.5,0-0.8,0l-8.2-11c3.3-3,5.5-7.3,5.8-12.1l10.1,4.9c-0.3,0.7-0.4,1.4-0.4,2.2
			c0,3.5,2.9,6.4,6.4,6.4s6.4-2.9,6.4-6.4s-2.9-6.4-6.4-6.4c-1.6,0-3,0.6-4.1,1.5l-12.1-5.8C74.1,8.5,66.8,2,58,2
			c-9.4,0-17.2,7.5-17.6,16.8L30.9,27c-2.7-2.3-6-3.7-9.7-4.1v-8.3C24,13.9,26,11.4,26,8.4C26,4.9,23.1,2,19.6,2
			c-3.5,0-6.4,2.9-6.4,6.4c0,3,2,5.5,4.8,6.2v8.3C9,23.7,2,31.2,2,40.4c0,6.5,3.5,12.1,8.7,15.2c0,0,0,0,0.1,0c0,0,0.1,0,0.1,0.1
			c0.2,0.1,0.4,0.2,0.7,0.4c0.2,0.1,0.4,0.2,0.6,0.3c0.3,0.2,0.7,0.3,1,0.4c0.3,0.1,0.5,0.2,0.8,0.3c0.2,0.1,0.5,0.1,0.7,0.2
			c0.3,0.1,0.6,0.2,0.9,0.2c0.2,0,0.4,0.1,0.6,0.1c0.5,0.1,0.9,0.2,1.4,0.2c0.2,0,0.3,0,0.5,0c0.5,0,1,0.1,1.6,0.1s1,0,1.6-0.1
			c0.2,0,0.3,0,0.5,0c0.5-0.1,0.9-0.1,1.4-0.2c0.2,0,0.4-0.1,0.6-0.1c0.3-0.1,0.6-0.1,0.9-0.2c0.2-0.1,0.5-0.1,0.7-0.2
			c0.3-0.1,0.5-0.2,0.8-0.3c0.4-0.1,0.7-0.3,1-0.4c0.2-0.1,0.4-0.2,0.6-0.3c0.2-0.1,0.4-0.2,0.7-0.4c0,0,0.1,0,0.1-0.1
			c0,0,0,0,0.1,0c4.4-2.6,7.5-7,8.5-12.1l7.2,5.6c-0.3,0.8-0.5,1.6-0.5,2.5c0,3.5,2.9,6.4,6.4,6.4c3.5,0,6.4-2.9,6.4-6.4
			c0-3.5-2.9-6.4-6.4-6.4c-1.5,0-2.8,0.5-3.9,1.3l-8.9-7c-0.2-3.9-1.6-7.5-4-10.3l7.5-6.4c0.9,5.1,4.1,9.4,8.4,12c0,0,0,0,0.1,0
			c0,0,0.1,0,0.1,0.1c0.2,0.1,0.4,0.2,0.7,0.4c0.2,0.1,0.4,0.2,0.6,0.3c0.3,0.2,0.7,0.3,1,0.4c0.3,0.1,0.5,0.2,0.8,0.3
			c0.2,0.1,0.5,0.1,0.7,0.2c0.3,0.1,0.6,0.2,0.9,0.2c0.2,0,0.4,0.1,0.6,0.1c0.5,0.1,0.9,0.2,1.4,0.2c0.2,0,0.3,0,0.5,0
			c0.5,0,1,0.1,1.6,0.1c0.5,0,1,0,1.6-0.1c0.2,0,0.3,0,0.5,0c0.5-0.1,0.9-0.1,1.4-0.2c0.2,0,0.4-0.1,0.6-0.1
			c0.3-0.1,0.6-0.1,0.9-0.2c0.2-0.1,0.5-0.1,0.7-0.2c0.3-0.1,0.5-0.2,0.8-0.3c0.4-0.1,0.7-0.3,1-0.4c0.2-0.1,0.4-0.2,0.6-0.3
			c0.2-0.1,0.4-0.2,0.7-0.4c0,0,0.1,0,0.1-0.1c0,0,0,0,0.1,0c0.1-0.1,0.2-0.1,0.4-0.2l7.2,9.6c-7.6,2-13.2,8.8-13.2,17
			c0,2,0.3,3.9,1,5.7l-6.5,4.8c-3-5.3-8.7-8.9-15.3-8.9c-9.2,0-16.7,7-17.5,16h-8.3C13.9,76,11.4,74,8.4,74C4.9,74,2,76.9,2,80.4
			c0,3.5,2.9,6.4,6.4,6.4c3,0,5.5-2,6.2-4.8h8.3c0.5,5.8,3.9,10.8,8.7,13.6c0,0,0,0,0.1,0c0,0,0.1,0,0.1,0.1
			c0.2,0.1,0.4,0.2,0.7,0.4c0.2,0.1,0.4,0.2,0.6,0.3c0.3,0.2,0.7,0.3,1,0.4c0.3,0.1,0.5,0.2,0.8,0.3c0.2,0.1,0.5,0.1,0.7,0.2
			c0.3,0.1,0.6,0.2,0.9,0.2c0.2,0,0.4,0.1,0.6,0.1c0.5,0.1,0.9,0.2,1.4,0.2c0.2,0,0.3,0,0.5,0c0.5,0,1,0.1,1.6,0.1
			c0.5,0,1,0,1.6-0.1c0.2,0,0.3,0,0.5,0c0.5-0.1,0.9-0.1,1.4-0.2c0.2,0,0.4-0.1,0.6-0.1c0.3-0.1,0.6-0.1,0.9-0.2
			c0.2-0.1,0.5-0.1,0.7-0.2c0.3-0.1,0.5-0.2,0.8-0.3c0.4-0.1,0.7-0.3,1-0.4c0.2-0.1,0.4-0.2,0.6-0.3c0.2-0.1,0.4-0.2,0.7-0.4
			c0,0,0.1,0,0.1-0.1c0,0,0,0,0.1,0c4.1-2.4,7.2-6.5,8.3-11.3L68,89.4c-0.3,0.7-0.4,1.4-0.4,2.2c0,3.5,2.9,6.4,6.4,6.4
			c3.5,0,6.4-2.9,6.4-6.4c0-3.5-2.9-6.4-6.4-6.4c-1.6,0-3,0.6-4.1,1.5L58,81c0-0.2,0-0.4,0-0.6c0-2-0.3-3.9-1-5.7l6.5-4.8
			c1.5,2.7,3.8,4.9,6.4,6.5c0,0,0,0,0.1,0c0,0,0.1,0,0.1,0.1c0.2,0.1,0.5,0.2,0.7,0.4c0.2,0.1,0.4,0.2,0.6,0.3
			c0.4,0.2,0.7,0.3,1.1,0.5c0.2,0.1,0.5,0.2,0.8,0.3c0.2,0.1,0.5,0.1,0.7,0.2c0.3,0.1,0.6,0.2,0.9,0.2c0.2,0,0.4,0.1,0.6,0.1
			c0.5,0.1,0.9,0.2,1.4,0.2c0.2,0,0.3,0,0.5,0c0.5,0,1,0.1,1.6,0.1s1,0,1.6-0.1c0.2,0,0.3,0,0.5,0c0.5-0.1,0.9-0.1,1.4-0.2
			c0.2,0,0.4-0.1,0.6-0.1c0.3-0.1,0.6-0.1,0.9-0.2c0.2-0.1,0.5-0.1,0.7-0.2c0.3-0.1,0.5-0.2,0.8-0.3c0.4-0.1,0.7-0.3,1.1-0.5
			c0.2-0.1,0.4-0.2,0.6-0.3c0.2-0.1,0.5-0.2,0.7-0.4c0,0,0.1,0,0.1-0.1c0,0,0,0,0.1,0c5.2-3.1,8.7-8.7,8.7-15.2
			C96.4,51.5,88.5,43.6,78.8,43.6z M91.6,24.4c1.8,0,3.2,1.4,3.2,3.2c0,1.8-1.4,3.2-3.2,3.2s-3.2-1.4-3.2-3.2
			C88.4,25.8,89.8,24.4,91.6,24.4z M50,48.4c1.8,0,3.2,1.4,3.2,3.2c0,1.8-1.4,3.2-3.2,3.2c-1.8,0-3.2-1.4-3.2-3.2
			C46.8,49.8,48.2,48.4,50,48.4z M16.4,8.4c0-1.8,1.4-3.2,3.2-3.2c1.8,0,3.2,1.4,3.2,3.2c0,1.8-1.4,3.2-3.2,3.2
			C17.8,11.6,16.4,10.2,16.4,8.4z M26,53.3c0,0-0.1,0-0.1,0.1c-0.4,0.2-0.9,0.4-1.3,0.6c0,0-0.1,0-0.1,0.1c-3.1,1.1-6.5,1.1-9.6,0
			c0,0-0.1,0-0.1-0.1c-0.5-0.2-0.9-0.4-1.3-0.6c0,0-0.1,0-0.1-0.1V50c0-0.9,0.8-1.6,1.8-1.6h9.3c1,0,1.8,0.7,1.8,1.6V53.3z M34,40.4
			c0,4.3-1.9,8.1-4.8,10.7V50c0-2.7-2.2-4.8-5-4.8H15c-2.7,0-5,2.2-5,4.8v1.1c-2.9-2.6-4.8-6.5-4.8-10.7c0-7.9,6.5-14.4,14.4-14.4
			C27.5,26,34,32.5,34,40.4z M64.4,32.5c0,0-0.1,0-0.1,0.1c-0.4,0.2-0.9,0.4-1.3,0.6c0,0-0.1,0-0.1,0.1c-3.1,1.1-6.5,1.1-9.6,0
			c-0.1,0-0.1,0-0.2-0.1c-0.4-0.2-0.9-0.3-1.3-0.6c0,0-0.1,0-0.1-0.1v-3.3c0-0.9,0.8-1.6,1.8-1.6h9.3c1,0,1.8,0.7,1.8,1.6V32.5z
			 M67.6,30.3v-1.1c0-2.7-2.2-4.8-5-4.8h-9.3c-2.7,0-5,2.2-5,4.8v1.1c-2.9-2.6-4.8-6.5-4.8-10.7c0-7.9,6.5-14.4,14.4-14.4
			c7.9,0,14.4,6.5,14.4,14.4C72.4,23.9,70.5,27.7,67.6,30.3z M8.4,83.6c-1.8,0-3.2-1.4-3.2-3.2c0-1.8,1.4-3.2,3.2-3.2
			c1.8,0,3.2,1.4,3.2,3.2C11.6,82.2,10.2,83.6,8.4,83.6z M46.8,93.3c0,0-0.1,0-0.1,0.1c-0.4,0.2-0.9,0.4-1.3,0.6c0,0-0.1,0-0.1,0
			c-3.1,1.1-6.5,1.1-9.6,0c0,0-0.1,0-0.1,0c-0.5-0.2-0.9-0.4-1.3-0.6c0,0-0.1,0-0.1-0.1V90c0-0.9,0.8-1.6,1.8-1.6H45
			c1,0,1.8,0.7,1.8,1.6V93.3z M50,91.1V90c0-2.7-2.2-4.8-5-4.8h-9.3c-2.7,0-5,2.2-5,4.8v1.1c-2.9-2.6-4.8-6.5-4.8-10.7
			C26,72.5,32.5,66,40.4,66c7.9,0,14.4,6.5,14.4,14.4C54.8,84.7,52.9,88.5,50,91.1z M74,88.4c1.8,0,3.2,1.4,3.2,3.2
			c0,1.8-1.4,3.2-3.2,3.2c-1.8,0-3.2-1.4-3.2-3.2C70.8,89.8,72.2,88.4,74,88.4z M85.2,74.1c0,0-0.1,0-0.1,0.1
			c-0.4,0.2-0.9,0.4-1.3,0.6c0,0-0.1,0-0.1,0.1c-3.1,1.1-6.5,1.1-9.6,0c0,0-0.1,0-0.1-0.1c-0.4-0.2-0.9-0.4-1.3-0.6
			c0,0-0.1,0-0.1-0.1v-3.3c0-0.9,0.8-1.6,1.8-1.6h9.3c1,0,1.8,0.7,1.8,1.6V74.1z M88.4,71.9v-1.1c0-2.7-2.2-4.8-5-4.8h-9.3
			c-2.7,0-5,2.2-5,4.8v1.1c-2.9-2.6-4.8-6.5-4.8-10.7c0-7.9,6.5-14.4,14.4-14.4c7.9,0,14.4,6.5,14.4,14.4
			C93.2,65.5,91.3,69.3,88.4,71.9z M78.8,50c-3.5,0-6.4,2.9-6.4,6.4c0,3.5,2.9,6.4,6.4,6.4c3.5,0,6.4-2.9,6.4-6.4
			C85.2,52.9,82.3,50,78.8,50z M78.8,59.6c-1.8,0-3.2-1.4-3.2-3.2c0-1.8,1.4-3.2,3.2-3.2c1.8,0,3.2,1.4,3.2,3.2
			C82,58.2,80.6,59.6,78.8,59.6z M40.4,69.2c-3.5,0-6.4,2.9-6.4,6.4s2.9,6.4,6.4,6.4c3.5,0,6.4-2.9,6.4-6.4S43.9,69.2,40.4,69.2z
			 M40.4,78.8c-1.8,0-3.2-1.4-3.2-3.2c0-1.8,1.4-3.2,3.2-3.2c1.8,0,3.2,1.4,3.2,3.2C43.6,77.4,42.2,78.8,40.4,78.8z M19.6,29.2
			c-3.5,0-6.4,2.9-6.4,6.4c0,3.5,2.9,6.4,6.4,6.4c3.5,0,6.4-2.9,6.4-6.4C26,32.1,23.1,29.2,19.6,29.2z M19.6,38.8
			c-1.8,0-3.2-1.4-3.2-3.2c0-1.8,1.4-3.2,3.2-3.2c1.8,0,3.2,1.4,3.2,3.2C22.8,37.4,21.4,38.8,19.6,38.8z M58,8.4
			c-3.5,0-6.4,2.9-6.4,6.4c0,3.5,2.9,6.4,6.4,6.4s6.4-2.9,6.4-6.4S61.5,8.4,58,8.4z M58,18c-1.8,0-3.2-1.4-3.2-3.2
			c0-1.8,1.4-3.2,3.2-3.2c1.8,0,3.2,1.4,3.2,3.2C61.2,16.6,59.8,18,58,18z"/>
	</g>
</g>
</svg>
