<?xml version="1.0" encoding="utf-8"?>
<!-- Generator: Adobe Illustrator 22.0.1, SVG Export Plug-In . SVG Version: 6.00 Build 0)  -->
<svg version="1.1" id="Слой_3" xmlns="http://www.w3.org/2000/svg" xmlns:xlink="http://www.w3.org/1999/xlink" x="0px" y="0px"
	 viewBox="0 0 100 100" style="enable-background:new 0 0 100 100;" xml:space="preserve">
<style type="text/css">
	.st0{fill:#0678BE;}
</style>
<path class="st0" d="M94.9,94h-0.5V41.3C94.4,25,82,11.5,65.9,9.3c0.4-0.7,0.6-1.5,0.6-2.3c0-2.8-2.3-5-5.2-5
	c-1.4,0-2.7,0.5-3.7,1.5c-0.6,0.6-0.6,1.6,0,2.1c0.6,0.6,1.6,0.6,2.2,0C60.3,5.2,60.8,5,61.3,5c1.1,0,2.1,0.9,2.1,2
	c0,1.1-0.9,2-2.1,2C43.6,9,29.1,22.7,28.3,39.7H4.6c-0.9,0-1.6,0.7-1.6,1.5v27.1c0,0.8,0.7,1.5,1.6,1.5h12.6c0,0,0,0,0,0
	c0,0,0,0,0,0h11.1V94h-0.5c-0.9,0-1.6,0.7-1.6,1.5c0,0.8,0.7,1.5,1.6,1.5h67.2c0.9,0,1.6-0.7,1.6-1.5C96.5,94.6,95.8,94,94.9,94z
	 M78.7,66.9H44V42.8h34.7V66.9z M61.3,12.1c0.3,0.2,1.8,1.7,3.1,8.5c1,5.2,1.6,12,1.7,19.1h-9.5c0.1-7.1,0.7-13.9,1.7-19.1
	C59.6,13.8,61,12.3,61.3,12.1z M69.2,39.7c-0.1-7.7-0.7-15-1.9-20.5c-0.5-2.6-1.1-4.7-1.8-6.3c2.9,1.2,5.6,3.8,7.9,7.4
	c3.2,5.2,5.1,12.1,5.3,19.4H69.2L69.2,39.7z M57.2,12.9c-0.7,1.6-1.3,3.7-1.8,6.3c-1.1,5.5-1.8,12.8-1.9,20.5H44
	c0.2-7.4,2.1-14.2,5.3-19.4C51.5,16.7,54.3,14.1,57.2,12.9z M44,69.9h9.5V94H44V69.9z M56.6,69.9h9.5V94h-9.5V69.9z M69.2,69.9h9.5
	V94h-9.5V69.9z M81.8,42.8h9.5V94h-9.5V42.8z M91.3,39.7h-9.5c-0.2-7.9-2.2-15.3-5.7-21c-1.1-1.8-2.3-3.3-3.6-4.6
	C83.1,18.3,90.7,28.1,91.3,39.7z M6.1,42.8h9.5v24.1H6.1V42.8z M18.7,66.9V42.8h9.5v24.1H18.7z M31.3,69.9h4.8
	c0.9,0,1.6-0.7,1.6-1.5c0-0.8-0.7-1.5-1.6-1.5h-4.8V42.8h4.8c0.9,0,1.6-0.7,1.6-1.5c0-0.8-0.7-1.5-1.6-1.5h-4.8
	c0.6-11.6,8.2-21.4,18.8-25.6c-1.3,1.3-2.5,2.8-3.6,4.6c-3.7,6-5.8,14-5.8,22.5V94h-9.5V69.9L31.3,69.9z"/>
</svg>
