<?xml version="1.0" encoding="utf-8"?>
<!-- Generator: Adobe Illustrator 22.0.1, SVG Export Plug-In . SVG Version: 6.00 Build 0)  -->
<svg version="1.1" id="Слой_2" xmlns="http://www.w3.org/2000/svg" xmlns:xlink="http://www.w3.org/1999/xlink" x="0px" y="0px"
	 viewBox="0 0 100 100" style="enable-background:new 0 0 100 100;" xml:space="preserve">
<style type="text/css">
	.st0{fill:#0678BE;}
</style>
<g>
	<g>
		<path class="st0" d="M51.6,82h-3.2v3.2h3.2V82z M96.4,85.2h-1.6V27.6c0-3.5-2.9-6.4-6.4-6.4H73.5C70.9,8.2,58.2-0.2,45.2,2.5
			c-9.4,1.9-16.8,9.3-18.7,18.7H11.6c-3.5,0-6.4,2.9-6.4,6.4v57.6H3.6c-0.9,0-1.6,0.7-1.6,1.6v4.8C2,95.1,4.9,98,8.4,98h83.2
			c3.5,0,6.4-2.9,6.4-6.4v-4.8C98,85.9,97.3,85.2,96.4,85.2z M35,11.6c3.9-4.1,9.4-6.4,15-6.4c11.5,0,20.8,9.3,20.8,20.7
			c0,5.7-2.3,11.1-6.4,15v-8.6c0-4.7-3.5-8.8-8.1-9.5c1.1-1.4,1.7-3.1,1.7-4.9c0-4.4-3.6-8-8-8c-4.4,0-8,3.6-8,8
			c0,1.8,0.6,3.5,1.7,4.9c-4.7,0.7-8.1,4.7-8.1,9.5V41C27.3,33.1,27,19.9,35,11.6z M54.8,34v12.2c-3.2,0.8-6.4,0.8-9.6,0V34H42v11.2
			c-1.1-0.5-2.2-1-3.2-1.7V32.4c0-3.5,2.9-6.4,6.4-6.4h9.6c3.5,0,6.4,2.9,6.4,6.4v11.1c-1,0.7-2.1,1.2-3.2,1.7V34H54.8z M45.2,18
			c0-2.7,2.1-4.8,4.8-4.8c2.7,0,4.8,2.1,4.8,4.8c0,2.7-2.1,4.8-4.8,4.8C47.4,22.8,45.2,20.7,45.2,18z M35.6,45.2L35.6,45.2
			L35.6,45.2c8.5,6.4,20.3,6.4,28.7,0h0.1v0c4.7-3.5,7.9-8.6,9.1-14.4h11.7v44.8H14.8V30.8h11.7C27.7,36.6,30.9,41.7,35.6,45.2z
			 M8.4,27.6c0-1.8,1.4-3.2,3.2-3.2h14.5C26,25,26,25.5,26,26c0,0.5,0,1.1,0.1,1.6H13.2c-0.9,0-1.6,0.7-1.6,1.6v48
			c0,0.9,0.7,1.6,1.6,1.6h73.6c0.9,0,1.6-0.7,1.6-1.6v-48c0-0.9-0.7-1.6-1.6-1.6H73.9c0-0.5,0.1-1.1,0.1-1.6c0-0.5,0-1.1-0.1-1.6
			h14.5c1.8,0,3.2,1.4,3.2,3.2v57.6H64.4c-0.4,0-0.8,0.2-1.1,0.5l-2.7,2.7H39.5l-2.7-2.7c-0.3-0.3-0.7-0.5-1.1-0.5H8.4V27.6z
			 M94.8,91.6c0,1.8-1.4,3.2-3.2,3.2H8.4c-1.8,0-3.2-1.4-3.2-3.2v-3.2h29.7l2.7,2.7c0.3,0.3,0.7,0.5,1.1,0.5h22.4
			c0.4,0,0.8-0.2,1.1-0.5l2.7-2.7h29.7V91.6z M24.4,69.2h51.2c0.9,0,1.6-0.7,1.6-1.6V54.8c0-0.9-0.7-1.6-1.6-1.6H24.4
			c-0.9,0-1.6,0.7-1.6,1.6v12.8C22.8,68.5,23.5,69.2,24.4,69.2z M26,56.4h48V66H26V56.4z M48.4,62.8h3.2v-3.2h-3.2V62.8z M54.8,62.8
			H58v-3.2h-3.2V62.8z M61.2,62.8h3.2v-3.2h-3.2V62.8z M67.6,62.8h3.2v-3.2h-3.2V62.8z M29.2,62.8h3.2v-3.2h-3.2V62.8z M35.6,62.8
			h3.2v-3.2h-3.2V62.8z M42,62.8h3.2v-3.2H42V62.8z"/>
	</g>
</g>
</svg>
