<?xml version="1.0" encoding="utf-8"?>
<!-- Generator: Adobe Illustrator 22.0.1, SVG Export Plug-In . SVG Version: 6.00 Build 0)  -->
<svg version="1.1" id="Слой_1" xmlns="http://www.w3.org/2000/svg" xmlns:xlink="http://www.w3.org/1999/xlink" x="0px" y="0px"
	 viewBox="0 0 100 100" style="enable-background:new 0 0 100 100;" xml:space="preserve">
<style type="text/css">
	.st0{fill:#0678BE;}
</style>
<g>
	<g>
		<path class="st0" d="M50,43.6c2,0,3.8-0.8,4.8-1.3c1,0.6,2.8,1.3,4.8,1.3c3,0,6.3-1.7,7.7-3.9c0.1-0.2,3.5-5.3,3.5-13.7
			c0-6.2-5-11.2-11.2-11.2c-1.8,0-3.5,0.7-4.8,1.4c-1.3-0.7-3-1.4-4.8-1.4c-6.2,0-11.2,5-11.2,11.2c0,9.5,3,13.2,3.6,13.9
			C43.9,41.7,46.9,43.6,50,43.6z M50,18c1.4,0,2.9,0.7,4,1.4c0.5,0.3,1.1,0.3,1.6,0c1.1-0.6,2.6-1.4,4-1.4c4.4,0,8,3.6,8,8
			c0,7.4-2.9,11.9-3,11.9c-0.7,1.2-3,2.5-5.1,2.5c-2.1,0-3.8-1.3-3.8-1.3c-0.3-0.2-0.6-0.3-1-0.3c-0.3,0-0.7,0.1-1,0.3
			c0,0-1.8,1.3-3.8,1.3c-2,0-4.2-1.3-5.1-2.6c0,0-0.1-0.1-0.1-0.1c0,0-2.7-3-2.7-11.7C42,21.6,45.6,18,50,18z M53.5,12.4
			c0.3,0.5,0.8,0.8,1.4,0.8c0.3,0,0.6-0.1,0.8-0.2c0.8-0.5,1-1.4,0.5-2.2l-4.8-8C51,2,50,1.8,49.2,2.2c-0.8,0.5-1,1.4-0.5,2.2
			L53.5,12.4z M58.5,12.2c0.1,0,1.1,0.4,2.5,0.4h0c1.9,0,3.6-0.7,4.8-1.9c2.9-2.9,1.6-7.1,1.5-7.3c-0.2-0.5-0.5-0.9-1-1
			c-0.1,0-1.1-0.4-2.5-0.4c-1.9,0-3.6,0.7-4.8,1.9c-2.9,2.9-1.6,7.1-1.5,7.3C57.6,11.7,58,12,58.5,12.2z M61.3,6.2
			c0.6-0.6,1.5-0.9,2.5-0.9c0.2,0,0.4,0,0.6,0c0.1,0.9,0.1,2.2-0.9,3.2C62.9,9,62,9.4,61,9.4c-0.2,0-0.4,0-0.6,0
			C60.2,8.5,60.3,7.1,61.3,6.2z M93.3,46.8H16.4c-2.6,0-4.8,2.2-4.8,4.8v6.4c0,0.9,0.7,1.6,1.6,1.6c0.9,0,1.6-0.7,1.6-1.6v-6.4
			c0-0.9,0.7-1.6,1.6-1.6h4.8v8c0,0.9,0.7,1.6,1.6,1.6c0.9,0,1.6-0.7,1.6-1.6v-8h41.6v8c0,0.9,0.7,1.6,1.6,1.6
			c0.9,0,1.6-0.7,1.6-1.6v-8h16v8c0,0.9,0.7,1.6,1.6,1.6c0.9,0,1.6-0.7,1.6-1.6v-8h4.8c0.9,0,1.6,0.7,1.6,1.6v11.2h-4.8
			c-0.9,0-1.6,0.7-1.6,1.6v14.4h-1.6c-0.9,0-1.6,0.7-1.6,1.6c0,0.9,0.7,1.6,1.6,1.6h4.8v11.2c0,0.9-0.7,1.6-1.6,1.6H40.4v-8
			c0-0.9-0.7-1.6-1.6-1.6c-0.9,0-1.6,0.7-1.6,1.6v8H34v-8c0-0.9-0.7-1.6-1.6-1.6c-0.9,0-1.6,0.7-1.6,1.6v8h-3.2v-8
			c0-0.9-0.7-1.6-1.6-1.6s-1.6,0.7-1.6,1.6v8H10c-0.9,0-1.6-0.7-1.6-1.6v-6.4c0-0.9-0.7-1.6-1.6-1.6c-0.9,0-1.6,0.7-1.6,1.6v6.4
			c0,2.6,2.2,4.8,4.8,4.8h80.1c2.6,0,4.8-2.2,4.8-4.8V82.1c0-2.1-1.6-3.2-3.2-3.2V66.1h3.2c1.6,0,3.2-1.1,3.2-3.2V51.7
			C98.1,49,95.9,46.8,93.3,46.8z M64.5,82.1L64.5,82.1c0.9,0,1.6-0.7,1.6-1.6c0-0.9-0.7-1.6-1.6-1.6H46.8V66.1h22.4v24
			c0,0.6,0.3,1.1,0.8,1.4c0.5,0.3,1.2,0.2,1.6-0.1l3.9-2.6l3.9,2.6c0.3,0.2,0.6,0.3,0.9,0.3c0.3,0,0.5-0.1,0.8-0.2
			c0.5-0.3,0.8-0.8,0.8-1.4v-24h1.6c0.9,0,1.6-0.7,1.6-1.6c0-0.9-0.7-1.6-1.6-1.6H6.8C4.1,62.9,2,65,2,67.7v9.6
			c0,2.6,2.2,4.8,4.8,4.8H64.5z M72.5,66.1h6.4v21l-2.3-1.5c-0.5-0.4-1.2-0.4-1.8,0l-2.3,1.5V66.1z M21.2,66.1h22.4v12.8H21.2V66.1z
			 M5.2,77.3v-9.6c0-0.9,0.7-1.6,1.6-1.6H18v12.8H6.8C5.9,78.9,5.2,78.2,5.2,77.3z M35.6,69.3c-0.9,0-1.6,0.7-1.6,1.6v3.2
			c0,0.9,0.7,1.6,1.6,1.6s1.6-0.7,1.6-1.6v-3.2C37.2,70,36.5,69.3,35.6,69.3z M29.2,69.3c-0.9,0-1.6,0.7-1.6,1.6v3.2
			c0,0.9,0.7,1.6,1.6,1.6c0.9,0,1.6-0.7,1.6-1.6v-3.2C30.8,70,30.1,69.3,29.2,69.3z"/>
	</g>
</g>
</svg>
