<?xml version="1.0" encoding="utf-8"?>
<!-- Generator: Adobe Illustrator 22.0.1, SVG Export Plug-In . SVG Version: 6.00 Build 0)  -->
<svg version="1.1" id="Слой_3" xmlns="http://www.w3.org/2000/svg" xmlns:xlink="http://www.w3.org/1999/xlink" x="0px" y="0px"
	 viewBox="0 0 100 100" style="enable-background:new 0 0 100 100;" xml:space="preserve">
<style type="text/css">
	.st0{fill:#0678BE;}
</style>
<g>
	<g>
		<path class="st0" d="M82.9,1.1H24.5c-4,0-7.3,2.9-8,6.6c-3.8,0.7-6.6,4-6.6,8v74.7c0,4.5,3.6,8.1,8.1,8.1h58.4c4,0,7.3-2.9,8-6.6
			c3.8-0.7,6.6-4,6.6-8V9.2C91,4.8,87.4,1.1,82.9,1.1z M81.3,90.5c0,2.7-2.2,4.9-4.9,4.9H18c-2.7,0-4.9-2.2-4.9-4.9V15.7
			c0-2.7,2.2-4.9,4.9-4.9h48.6v13c0,0.9,0.7,1.6,1.6,1.6h13V90.5z M69.9,22.2v-9.1l9.1,9.1H69.9z M87.8,84c0,2.1-1.4,3.9-3.2,4.6
			V23.9c0-0.5-0.2-0.9-0.5-1.2L69.4,8.1c-0.3-0.3-0.7-0.5-1.1-0.5H20c0.7-1.9,2.5-3.2,4.6-3.2h58.4c2.7,0,4.9,2.2,4.9,4.9V84z
			 M47.2,25.5c-12.5,0-22.7,10.2-22.7,22.7C24.5,60.8,34.7,71,47.2,71s22.7-10.2,22.7-22.7C69.9,35.7,59.7,25.5,47.2,25.5z
			 M47.2,67.7c-10.7,0-19.5-8.7-19.5-19.5c0-10.8,8.7-19.5,19.5-19.5c10.7,0,19.5,8.7,19.5,19.5C66.7,59,57.9,67.7,47.2,67.7z
			 M52.4,37.6l-13,19.5l2.7,1.8l13-19.5L52.4,37.6z M55.3,48.2c-2.7,0-4.9,2.2-4.9,4.9c0,2.7,2.2,4.9,4.9,4.9c2.7,0,4.9-2.2,4.9-4.9
			C60.2,50.4,58,48.2,55.3,48.2z M55.3,54.7c-0.9,0-1.6-0.7-1.6-1.6c0-0.9,0.7-1.6,1.6-1.6c0.9,0,1.6,0.7,1.6,1.6
			C56.9,54,56.2,54.7,55.3,54.7z M44,43.4c0-2.7-2.2-4.9-4.9-4.9c-2.7,0-4.9,2.2-4.9,4.9c0,2.7,2.2,4.9,4.9,4.9
			C41.8,48.2,44,46,44,43.4z M39.1,45c-0.9,0-1.6-0.7-1.6-1.6c0-0.9,0.7-1.6,1.6-1.6c0.9,0,1.6,0.7,1.6,1.6C40.7,44.3,40,45,39.1,45
			z M47.2,81.7L43.5,78l-2.3,2.3l4.9,4.9c0.3,0.3,0.7,0.5,1.1,0.5s0.8-0.2,1.1-0.5l9.7-9.7l-2.3-2.3L47.2,81.7z"/>
	</g>
</g>
</svg>
