<?xml version="1.0" encoding="utf-8"?>
<!-- Generator: Adobe Illustrator 22.0.1, SVG Export Plug-In . SVG Version: 6.00 Build 0)  -->
<svg version="1.1" id="Слой_2" xmlns="http://www.w3.org/2000/svg" xmlns:xlink="http://www.w3.org/1999/xlink" x="0px" y="0px"
	 viewBox="0 0 100 100" style="enable-background:new 0 0 100 100;" xml:space="preserve">
<style type="text/css">
	.st0{fill:#0678BE;}
</style>
<g>
	<g>
		<path class="st0" d="M29,77.8l-5.4-5.2l-7.9,8.3l-3.4-4.2l-5.8,4.7l8.8,10.9L29,77.8z M11.9,80.5l3.6,4.5l8.2-8.6l1.4,1.4
			l-9.8,10.2l-5.1-6.3L11.9,80.5z M48.5,51.3v8h2.8v-8C64,50.6,74.1,40.1,74.1,27.2C74.1,13.9,63.2,3,49.9,3
			C36.6,3,25.7,13.9,25.7,27.2C25.7,40.1,35.8,50.6,48.5,51.3z M49.9,5.8c11.8,0,21.4,9.6,21.4,21.4c0,11.8-9.6,21.4-21.4,21.4
			c-11.8,0-21.4-9.6-21.4-21.4C28.5,15.4,38.1,5.8,49.9,5.8z M49.9,45.8c10.3,0,18.6-8.4,18.6-18.6c0-10.3-8.4-18.6-18.6-18.6
			c-10.3,0-18.6,8.4-18.6,18.6C31.3,37.5,39.6,45.8,49.9,45.8z M34.1,25.8c0.7-7.7,6.8-13.8,14.4-14.4v2.2h2.8v-2.2
			c7.7,0.7,13.8,6.8,14.4,14.4h-2.2v2.8h2.2c-0.7,7.7-6.8,13.8-14.4,14.4v-2.2h-2.8V43c-7.7-0.7-13.8-6.8-14.4-14.4h2.2v-2.8H34.1z
			 M45.2,40.4l0.9-2.6c-3.2-1.1-5.8-3.7-6.9-7l-2.6,0.9C38,35.8,41.2,39,45.2,40.4z M61,25.3l2.7-0.5c-0.4-2.1-1.2-4.1-2.5-5.8
			L59,20.6C60.1,22,60.7,23.6,61,25.3z M55.9,14.5c-0.9-0.4-1.9-0.8-2.9-1l-0.6,2.7c0.8,0.2,1.6,0.4,2.3,0.8L55.9,14.5z M60,17.4
			c-0.7-0.7-1.5-1.4-2.3-1.9l-1.5,2.3c0.7,0.5,1.3,1,1.9,1.6L60,17.4z M46.2,27.2c0,0.5,0.1,1,0.3,1.5l-0.8,0.8l1.9,1.9l0.8-0.8
			c0.5,0.2,1,0.3,1.5,0.3c0.5,0,1-0.1,1.5-0.3l1.4,1.4l1.9-1.9l-1.4-1.4c0.2-0.5,0.3-1,0.3-1.5c0-0.5-0.1-1-0.3-1.5l4-4l-1.9-1.9
			l-4,4c-0.5-0.2-1-0.3-1.5-0.3C47.8,23.4,46.2,25.1,46.2,27.2z M49.9,26.2c0.5,0,1,0.4,1,1c0,0.5-0.4,1-1,1c-0.5,0-1-0.4-1-1
			C48.9,26.6,49.4,26.2,49.9,26.2z M47.3,22.7l-4.8-4.8l-1.9,1.9l4.8,4.8L47.3,22.7z M56.2,36.5h2.8v-2.8h-2.8V36.5z M51.6,36.5h2.8
			v-2.8h-2.8V36.5z M15.2,71.8h-2.8v2.8h2.8V71.8z M10.6,71.8H6.9v2.8h3.7V71.8z M19.8,71.8H17v2.8h2.8V71.8z M61.1,77.8l-5.4-5.2
			l-7.9,8.3l-3.4-4.2l-5.8,4.7l8.8,10.9L61.1,77.8z M44,80.5l3.6,4.5l8.2-8.6l1.4,1.4l-9.8,10.2l-5.1-6.3L44,80.5z M51.9,71.8h-2.8
			v2.8h2.8V71.8z M42.7,71.8H39v2.8h3.7V71.8z M47.3,71.8h-2.8v2.8h2.8V71.8z M93.2,77.8l-5.4-5.2l-7.9,8.3l-3.4-4.2l-5.8,4.7
			l8.8,10.9L93.2,77.8z M76,80.5l3.6,4.5l8.2-8.6l1.4,1.4l-9.8,10.2l-5.1-6.3L76,80.5z M83.3,67.2v-1.4h-2.8v1.4H67.1V97h29.8V67.2
			H83.3z M94.1,94.2H69.8V69.9h24.3V94.2z M79.4,71.8h-2.8v2.8h2.8V71.8z M84,71.8h-2.8v2.8H84V71.8z M74.8,71.8h-3.7v2.8h3.7V71.8z
			 M80.5,64h2.8v-2.8h-2.8V64z M53.2,57h27.3v2.4h2.8v-5.1H53.2V57z M19.1,57h27.5v-2.8H16.4v5.1h2.8V57z M19.1,65.8h-2.8v1.4H2.9
			V97h29.8V67.2H19.1V65.8z M30,69.9v24.3H5.7V69.9H30z M19.1,61.2h-2.8V64h2.8V61.2z M51.3,65.8h-2.8v1.4H35V97h29.8V67.2H51.3
			V65.8z M62.1,69.9v24.3H37.7V69.9H62.1z M48.5,64h2.8v-2.8h-2.8V64z"/>
	</g>
</g>
</svg>
